:SAMPLES-PER-SECOND 30
:FULLY-SPECIFIED
:DEGREES
113
root  -26.9688 39.1874 -28.5469 -2.13738 -34.1983 -3.52859
RightUpLeg  -9.56566 -29.9365 4.38816
RightLeg  30.1722 -1.45388 -1.20086
RightFoot  -16.0983 -0.386401 -6.63921
RightToes  0.00048216 0.542163 -0.142577
Spine  28.1648 0.203705 13.4876
Spine1  10.8504 4.34135 -4.40828
HEad  -30.7915 45.8823 -43.9917
LeftShoulder1  9.09595 -13.961 -45.402
LeftArm  -21.4028 18.9904 -23.7319
LeftForeArm  112.238 -77.8319 -120.892
LeftHand  -0.25398 0.0180481 5.50724
RightShoulder  5.40069 9.76862 34.7338
RightArm  -12.1743 -15.9663 22.3078
RightForeArm  62.3597 77.6602 106.026
RightHand  -0.30482 -13.7664 2.75595
LeftUpLeg  -25.7443 27.411 -14.8041
LeftLeg  16.664 -17.4045 -5.4317
LeftFoot  5.99851 2.8156 -18.6514
LeftToes  1.06243e-005 4.65856e-005 -8.18505e-006
114
root  -26.1404 39.6932 -28.5941 -2.01988 -28.5185 -2.04081
RightUpLeg  -9.54991 -33.5884 2.22379
RightLeg  26.4195 -2.35496 -1.41128
RightFoot  -13.3468 -0.181144 -5.16019
RightToes  0.00048216 0.542163 -0.142577
Spine  26.4393 0.477623 12.8081
Spine1  10.3995 4.25398 -4.32843
HEad  -29.1154 44.6692 -41.7821
LeftShoulder1  9.12546 -13.9039 -45.7095
LeftArm  -20.9651 20.249 -23.2327
LeftForeArm  114.831 -77.446 -123.718
LeftHand  -0.25398 0.0180481 5.50724
RightShoulder  5.30959 9.57028 34.656
RightArm  -12.8362 -17.7065 23.1298
RightForeArm  67.1597 77.4066 110.051
RightHand  -0.315471 -13.6648 2.91093
LeftUpLeg  -24.9861 25.2531 -12.9757
LeftLeg  17.5643 -12.0001 -3.91774
LeftFoot  2.96241 1.98297 -15.8908
LeftToes  1.06243e-005 4.65856e-005 -8.18505e-006
115
root  -25.3068 40.156 -28.5053 -1.60084 -23.144 -0.341346
RightUpLeg  -8.90135 -33.7493 -1.0465
RightLeg  22.6939 -6.56034 -1.21822
RightFoot  -10.5426 -0.0467837 -3.5124
RightToes  0.00048216 0.542163 -0.142577
Spine  24.2304 0.803285 11.8678
Spine1  9.98347 4.2696 -4.69756
HEad  -26.8162 43.2207 -39.1492
LeftShoulder1  9.07119 -13.8058 -45.6945
LeftArm  -20.5824 21.9844 -22.7369
LeftForeArm  117.307 -77.0018 -126.523
LeftHand  -0.25398 0.0180481 5.50724
RightShoulder  5.26699 9.48844 34.5849
RightArm  -12.8403 -19.7812 23.6689
RightForeArm  72.1086 76.9871 114.797
RightHand  -0.20951 -12.8329 1.75688
LeftUpLeg  -24.4009 23.4148 -11.1491
LeftLeg  18.1509 -8.34719 -2.73511
LeftFoot  1.05504 1.44327 -13.308
LeftToes  1.06243e-005 4.65856e-005 -8.18505e-006
116
root  -24.4471 40.5151 -28.2759 -0.74207 -17.8964 1.03094
RightUpLeg  -7.49296 -26.9574 -5.2854
RightLeg  19.4433 -17.9586 -0.487095
RightFoot  -7.99083 -0.00394614 -1.72199
RightToes  0.00048216 0.542163 -0.142577
Spine  21.3622 1.09229 11.1218
Spine1  9.66942 4.24351 -5.06111
HEad  -23.7293 41.7556 -36.0598
LeftShoulder1  9.00628 -13.65 -45.7827
LeftArm  -20.4427 24.154 -22.0157
LeftForeArm  120.392 -76.3584 -130.021
LeftHand  -0.25398 0.0180481 5.50724
RightShoulder  5.21596 9.40471 34.4541
RightArm  -12.3788 -21.8812 24.122
RightForeArm  76.8541 76.5134 119.086
RightHand  -0.180722 -12.7233 1.34928
LeftUpLeg  -23.8871 21.7123 -8.95455
LeftLeg  18.1275 -5.94511 -1.85708
LeftFoot  0.297664 1.02852 -10.1079
LeftToes  1.06243e-005 4.65856e-005 -8.18505e-006
117
root  -23.5385 40.7612 -27.9224 0.434252 -13.1976 1.56669
RightUpLeg  -6.17833 -19.2591 -8.37554
RightLeg  16.5196 -29.6647 0.223279
RightFoot  -5.60781 -0.0423375 0.0913716
RightToes  0.00048216 0.542163 -0.142577
Spine  17.8653 1.43176 11.154
Spine1  9.66803 4.39665 -5.4728
HEad  -20.1329 40.3503 -32.6214
LeftShoulder1  8.92594 -13.3888 -46.0849
LeftArm  -20.5825 26.5643 -21.0323
LeftForeArm  124.014 -75.4355 -134.184
LeftHand  -0.25398 0.0180481 5.50724
RightShoulder  5.12786 9.24928 34.2583
RightArm  -11.7588 -23.5788 24.8945
RightForeArm  80.7243 76.1168 122.183
RightHand  -0.266706 -13.6899 2.24754
LeftUpLeg  -23.2074 21.2415 -5.9876
LeftLeg  17.1117 -4.31812 -1.15996
LeftFoot  0.173749 0.81607 -8.09819
LeftToes  1.06243e-005 4.65856e-005 -8.18505e-006
118
root  -22.5466 40.8827 -27.4895 1.43692 -9.3313 1.53408
RightUpLeg  -4.89885 -15.6903 -10.229
RightLeg  13.8759 -36.3495 0.732596
RightFoot  -3.27706 -0.131354 1.55708
RightToes  0.00048216 0.542163 -0.142577
Spine  14.3096 1.86794 11.831
Spine1  10.0435 4.90126 -6.29643
HEad  -16.6228 38.9989 -29.2776
LeftShoulder1  8.75914 -13.03 -46.2072
LeftArm  -21.2381 29.0727 -20.2608
LeftForeArm  127.651 -74.3056 -138.342
LeftHand  -0.25398 0.0180481 5.50724
RightShoulder  5.03915 9.05976 34.1601
RightArm  -10.9541 -24.4523 25.9173
RightForeArm  82.9112 75.8491 124.003
RightHand  -0.353671 -14.7668 2.95062
LeftUpLeg  -21.9056 21.6422 -2.30223
LeftLeg  15.1106 -2.14538 -0.439723
LeftFoot  0.552179 0.737265 -7.10934
LeftToes  1.06243e-005 4.65856e-005 -8.18505e-006
119
root  -21.4338 40.8825 -27.0197 1.95573 -6.09084 1.48143
RightUpLeg  -3.20744 -15.8785 -12.1891
RightLeg  11.6399 -39.0227 1.44346
RightFoot  -1.0926 -0.262244 2.83813
RightToes  0.00048216 0.542163 -0.142577
Spine  11.2621 2.31693 12.6349
Spine1  10.5693 5.59818 -7.52699
HEad  -13.6699 37.7657 -26.4963
LeftShoulder1  8.53366 -12.6604 -46.0412
LeftArm  -22.6388 31.6059 -20.002
LeftForeArm  130.82 -73.124 -141.916
LeftHand  -0.25398 0.0180481 5.50724
RightShoulder  4.97839 8.89895 34.1898
RightArm  -9.79751 -24.3132 26.7761
RightForeArm  83.491 75.7419 124.643
RightHand  -0.34638 -15.2703 2.6683
LeftUpLeg  -19.6886 20.6976 1.94626
LeftLeg  12.6115 3.07448 0.185707
LeftFoot  1.57067 0.549671 -4.97336
LeftToes  1.06243e-005 4.65856e-005 -8.18505e-006
120
root  -20.1862 40.8045 -26.5283 2.12032 -3.06096 1.56561
RightUpLeg  -1.10082 -16.7535 -14.7207
RightLeg  9.79064 -40.8878 2.25769
RightFoot  0.840362 -0.465085 4.41195
RightToes  0.00048216 0.542163 -0.142577
Spine  8.83012 2.67411 13.3676
Spine1  10.9367 6.22463 -8.81133
HEad  -11.1375 36.6658 -24.1834
LeftShoulder1  8.33474 -12.337 -45.8802
LeftArm  -24.5528 34.0769 -20.0906
LeftForeArm  133.042 -72.0563 -144.61
LeftHand  -0.25398 0.0180481 5.50724
RightShoulder  4.96325 8.82413 34.3092
RightArm  -8.33707 -23.3341 27.2182
RightForeArm  82.907 75.9084 123.7
RightHand  -0.362224 -15.6196 2.71383
LeftUpLeg  -17.2438 18.4547 5.85435
LeftLeg  10.7043 11.2784 0.554318
LeftFoot  2.1701 0.0939948 -0.86456
LeftToes  1.06243e-005 4.65856e-005 -8.18505e-006
121
root  -18.8158 40.6848 -26.0058 2.27496 0.191682 1.68041
RightUpLeg  1.36916 -17.3072 -17.3805
RightLeg  7.62413 -42.8083 3.10321
RightFoot  2.89215 -0.733121 6.02267
RightToes  0.00048216 0.542163 -0.142577
Spine  6.62464 2.93738 14.1204
Spine1  11.0695 6.67533 -10.0051
HEad  -8.49851 35.3678 -21.8284
LeftShoulder1  8.15737 -12.0315 -45.7818
LeftArm  -26.2679 36.208 -20.2908
LeftForeArm  133.984 -71.2811 -146.266
LeftHand  -0.25398 0.0180481 5.50724
RightShoulder  5.02292 8.87771 34.6125
RightArm  -6.86945 -22.0076 27.2597
RightForeArm  80.8464 76.3467 120.932
RightHand  -0.467177 -16.1296 3.64612
LeftUpLeg  -15.6116 18.1414 7.90858
LeftLeg  10.2738 18.7383 1.26537
LeftFoot  1.07678 -0.348691 3.16613
LeftToes  1.06243e-005 4.65856e-005 -8.18505e-006
122
root  -17.3371 40.4922 -25.4489 2.66163 4.0011 2.05888
RightUpLeg  4.31929 -17.6214 -20.2713
RightLeg  4.72977 -45.384 4.2682
RightFoot  5.66581 -1.11362 7.67519
RightToes  0.00048216 0.542163 -0.142577
Spine  4.16791 3.25256 14.6262
Spine1  11.3015 7.08658 -11.1852
HEad  -5.61445 33.2545 -19.1227
LeftShoulder1  7.96017 -11.745 -45.5031
LeftArm  -26.9922 37.5179 -20.4193
LeftForeArm  134.008 -70.8451 -147.064
LeftHand  -0.25398 0.0180481 5.50724
RightShoulder  5.1347 9.02326 35.0277
RightArm  -5.80171 -21.0653 27.0623
RightForeArm  77.5955 76.7459 117.806
RightHand  -0.482648 -16.1675 3.78095
LeftUpLeg  -14.7862 19.6027 8.03412
LeftLeg  11.1953 24.2144 2.31762
LeftFoot  -0.557283 -0.389691 4.11732
LeftToes  1.06243e-005 4.65856e-005 -8.18505e-006
123
root  -15.7742 40.2039 -24.8554 3.21778 8.18987 3.18456
RightUpLeg  7.71738 -18.2289 -24.0552
RightLeg  2.11372 -47.9644 5.40633
RightFoot  8.17945 -1.599 9.62632
RightToes  0.00048216 0.542163 -0.142577
Spine  1.57527 3.88574 14.0992
Spine1  11.8745 7.73434 -12.0548
HEad  -3.01572 29.9524 -16.1048
LeftShoulder1  7.7738 -11.5618 -44.9571
LeftArm  -26.2916 37.7076 -20.1781
LeftForeArm  134.021 -70.5414 -147.598
LeftHand  -0.25398 0.0180481 5.50724
RightShoulder  5.20948 9.1587 35.1776
RightArm  -5.47689 -21.157 26.9167
RightForeArm  75.4752 76.8064 116.894
RightHand  -0.307847 -15.315 2.19831
LeftUpLeg  -14.2639 22.7892 6.2661
LeftLeg  12.6262 25.7299 2.81639
LeftFoot  -0.562034 -0.105399 1.22205
LeftToes  1.06243e-005 4.65856e-005 -8.18505e-006
124
root  -14.1568 39.8787 -24.2225 3.60304 12.3557 5.09639
RightUpLeg  10.8707 -18.9546 -28.5586
RightLeg  2.13677 -47.6783 4.40332
RightFoot  7.43888 -1.70704 10.6303
RightToes  0.00048216 0.542163 -0.142577
Spine  -0.242534 4.78306 12.2495
Spine1  12.3119 8.5994 -12.1397
HEad  -1.3095 25.7354 -13.0174
LeftShoulder1  7.63275 -11.4989 -44.2981
LeftArm  -24.3962 36.8672 -19.3243
LeftForeArm  134.25 -70.2344 -148.153
LeftHand  -0.25398 0.0180481 5.50724
RightShoulder  5.21916 9.23642 35.0053
RightArm  -5.94582 -22.2076 27.1255
RightForeArm  75.851 76.6049 118.288
RightHand  -0.156723 -14.3686 0.677062
LeftUpLeg  -14.0726 30.047 2.35331
LeftLeg  14.3139 19.5869 2.38762
LeftFoot  0.284075 0.244129 -2.4599
LeftToes  1.06243e-005 4.65856e-005 -8.18505e-006
125
root  -12.5361 39.6055 -23.5988 3.58027 16.5703 7.14906
RightUpLeg  12.9982 -18.8535 -32.076
RightLeg  5.20186 -42.1366 0.428434
RightFoot  1.90283 -0.986942 8.34397
RightToes  0.00048216 0.542163 -0.142577
Spine  -0.536473 5.43541 10.0597
Spine1  12.0635 9.28589 -11.8557
HEad  -0.522316 21.2918 -10.4099
LeftShoulder1  7.52477 -11.4502 -43.7888
LeftArm  -22.1607 35.1248 -17.992
LeftForeArm  133.617 -70.2642 -148.017
LeftHand  -0.25398 0.0180481 5.50724
RightShoulder  5.25572 9.30415 35.0725
RightArm  -6.96665 -23.2133 27.6664
RightForeArm  76.5149 76.5057 119.058
RightHand  -0.162961 -14.4084 0.720269
LeftUpLeg  -14.4081 39.0117 -2.77558
LeftLeg  16.8175 8.10499 1.97311
LeftFoot  -0.924724 0.29656 -3.13386
LeftToes  1.06243e-005 4.65856e-005 -8.18505e-006
126
root  -10.9759 39.4138 -23.1149 3.44143 21.9437 8.73672
RightUpLeg  14.1513 -18.0216 -33.1696
RightLeg  9.24358 -32.6104 -3.63596
RightFoot  -5.79073 -0.195746 3.13609
RightToes  0.00048216 0.542163 -0.142577
Spine  0.323775 5.09054 8.74718
Spine1  11.3999 9.08404 -12.1204
HEad  -0.123214 17.1638 -8.95561
LeftShoulder1  7.48982 -11.3864 -43.7709
LeftArm  -20.5107 32.5823 -16.7149
LeftForeArm  131.11 -71.0985 -146.176
LeftHand  -0.25398 0.0180481 5.50724
RightShoulder  5.38348 9.40868 35.7168
RightArm  -8.2179 -23.1867 28.1441
RightForeArm  74.604 76.7533 117.029
RightHand  -0.23778 -15.3111 1.43518
LeftUpLeg  -14.0201 37.7288 -6.08899
LeftLeg  19.9357 4.06611 2.11343
LeftFoot  -4.54138 0.0912655 -0.994951
LeftToes  1.06243e-005 4.65856e-005 -8.18505e-006
127
root  -9.57964 39.3381 -22.7494 3.19875 26.9929 9.32868
RightUpLeg  13.0582 -17.0462 -31.4265
RightLeg  14.6397 -20.5283 -5.67644
RightFoot  -11.3422 -0.059913 -0.817092
RightToes  0.00048216 0.542163 -0.142577
Spine  1.46735 4.57512 8.49815
Spine1  11.2178 8.69318 -12.5654
HEad  0.365662 13.6033 -8.68569
LeftShoulder1  7.60011 -11.431 -44.3079
LeftArm  -19.8174 29.9407 -16.0946
LeftForeArm  127.311 -72.5011 -142.761
LeftHand  -0.25398 0.0180481 5.50724
RightShoulder  5.54192 9.53994 36.4937
RightArm  -9.30351 -22.18 28.182
RightForeArm  69.8513 77.1729 112.788
RightHand  -0.238098 -16.0754 1.27428
LeftUpLeg  -12.2835 30.9179 -7.2854
LeftLeg  21.7141 5.99389 2.95675
LeftFoot  -7.93859 0.0156474 0.923532
LeftToes  1.06243e-005 4.65856e-005 -8.18505e-006
